/* XPM */
static char * imageviewer_32x32_xpm[] = {
"32 32 256 2",
"  	c #000100",
". 	c #000104",
"+ 	c #020005",
"@ 	c #070000",
"# 	c #00010E",
"$ 	c #000113",
"% 	c #010018",
"& 	c #040013",
"* 	c #00011C",
"= 	c #000125",
"- 	c #01002F",
"; 	c #050025",
"> 	c #010034",
", 	c #00003A",
"' 	c #000139",
") 	c #000145",
"! 	c #000240",
"~ 	c #060040",
"{ 	c #03004B",
"] 	c #010052",
"^ 	c #000058",
"/ 	c #000258",
"( 	c #030061",
"_ 	c #000170",
": 	c #000079",
"< 	c #06006A",
"[ 	c #001413",
"} 	c #00017B",
"| 	c #000081",
"1 	c #000E36",
"2 	c #000082",
"3 	c #000083",
"4 	c #000E3B",
"5 	c #030C41",
"6 	c #00008A",
"7 	c #00008B",
"8 	c #020B4D",
"9 	c #00151D",
"0 	c #001619",
"a 	c #050D3C",
"b 	c #020185",
"c 	c #001A05",
"d 	c #001426",
"e 	c #010A5A",
"f 	c #000F42",
"g 	c #010960",
"h 	c #0C0073",
"i 	c #03008C",
"j 	c #00132F",
"k 	c #00142B",
"l 	c #021716",
"m 	c #001912",
"n 	c #001335",
"o 	c #041523",
"p 	c #000D59",
"q 	c #001049",
"r 	c #00048A",
"s 	c #00133A",
"t 	c #07008D",
"u 	c #040770",
"v 	c #011D03",
"w 	c #00019C",
"x 	c #001728",
"y 	c #001A18",
"z 	c #000394",
"A 	c #01191C",
"B 	c #001C0F",
"C 	c #000F55",
"D 	c #001D0A",
"E 	c #001825",
"F 	c #0000A6",
"G 	c #051A0E",
"H 	c #00029D",
"I 	c #070095",
"J 	c #11007C",
"K 	c #08103F",
"L 	c #060D55",
"M 	c #001C15",
"N 	c #070678",
"O 	c #041820",
"P 	c #0000AE",
"Q 	c #00039E",
"R 	c #0000AF",
"S 	c #08057F",
"T 	c #0000B0",
"U 	c #131412",
"V 	c #070B63",
"W 	c #000B77",
"X 	c #0002A8",
"Y 	c #101517",
"Z 	c #00049F",
"` 	c #041F05",
" .	c #000697",
"..	c #000987",
"+.	c #0001B2",
"@.	c #0000B8",
"#.	c #02163D",
"$.	c #0C0388",
"%.	c #002108",
"&.	c #0000B9",
"*.	c #0003A9",
"=.	c #0D0097",
"-.	c #000E71",
";.	c #001742",
">.	c #161417",
",.	c #000D79",
"'.	c #0200BA",
").	c #00210F",
"!.	c #000990",
"~.	c #0006A1",
"{.	c #0B0879",
"].	c #002404",
"^.	c #002115",
"/.	c #10009F",
"(.	c #0700BB",
"_.	c #0001CA",
":.	c #140099",
"<.	c #4D0000",
"[.	c #0600C3",
"}.	c #02240D",
"|.	c #002608",
"1.	c #0000D4",
"2.	c #1400A0",
"3.	c #0004C2",
"4.	c #0006B8",
"5.	c #032701",
"6.	c #181334",
"7.	c #0001D6",
"8.	c #0003CC",
"9.	c #0000DF",
"0.	c #321001",
"a.	c #002904",
"b.	c #0000E0",
"c.	c #00280A",
"d.	c #0B00C4",
"e.	c #0004CD",
"f.	c #0008BA",
"g.	c #161344",
"h.	c #0001E1",
"i.	c #0003D7",
"j.	c #1700A9",
"k.	c #0000E8",
"l.	c #0007C4",
"m.	c #0102E2",
"n.	c #1000C5",
"o.	c #002C08",
"p.	c #0F00CD",
"q.	c #022D02",
"r.	c #0A1572",
"s.	c #002E0B",
"t.	c #1400CE",
"u.	c #003004",
"v.	c #490C01",
"w.	c #1800C7",
"x.	c #003200",
"y.	c #0D157A",
"z.	c #0008E8",
"A.	c #003207",
"B.	c #18136C",
"C.	c #640100",
"D.	c #0E1582",
"E.	c #00340A",
"F.	c #1B00D8",
"G.	c #6A0002",
"H.	c #4C0F06",
"I.	c #6C0000",
"J.	c #1C127B",
"K.	c #013604",
"L.	c #023605",
"M.	c #003900",
"N.	c #013517",
"O.	c #740001",
"P.	c #003B02",
"Q.	c #053909",
"R.	c #590A2B",
"S.	c #013E05",
"T.	c #7D0000",
"U.	c #790300",
"V.	c #800000",
"W.	c #004201",
"X.	c #740A00",
"Y.	c #004505",
"Z.	c #890002",
"`.	c #8C0000",
" +	c #641600",
".+	c #054700",
"++	c #930000",
"@+	c #860701",
"#+	c #004B02",
"$+	c #721300",
"%+	c #084901",
"&+	c #004E04",
"*+	c #990200",
"=+	c #9E0000",
"-+	c #90080F",
";+	c #562804",
">+	c #721B00",
",+	c #005501",
"'+	c #A40200",
")+	c #AA0000",
"!+	c #0A5200",
"~+	c #AD0001",
"{+	c #005805",
"]+	c #A4040D",
"^+	c #473600",
"/+	c #AF0200",
"(+	c #592E01",
"_+	c #005C00",
":+	c #B50000",
"<+	c #9E0C01",
"[+	c #B90000",
"}+	c #005F01",
"|+	c #016104",
"1+	c #4A3D00",
"2+	c #C20000",
"3+	c #523B00",
"4+	c #006700",
"5+	c #2A5203",
"6+	c #CC0002",
"7+	c #C70400",
"8+	c #006A01",
"9+	c #CD000C",
"0+	c #D20100",
"a+	c #3E4C03",
"b+	c #1A5D0C",
"c+	c #D90001",
"d+	c #D8000A",
"e+	c #126700",
"f+	c #007100",
"g+	c #066D06",
"h+	c #1B6400",
"i+	c #246200",
"j+	c #415401",
"k+	c #DF0500",
"l+	c #037502",
"m+	c #106F00",
"n+	c #EA0300",
"o+	c #007B00",
"p+	c #1F6E00",
"q+	c #027E00",
"r+	c #F60200",
"s+	c #FD0000",
"t+	c #FC0003",
"u+	c #008305",
"v+	c #078002",
"w+	c #008700",
"x+	c #158300",
"y+	c #098A00",
"z+	c #008E06",
"A+	c #1F8004",
"B+	c #019200",
"C+	c #0F8C04",
"D+	c #009600",
"E+	c #0D9500",
"F+	c #009B08",
"G+	c #019C00",
"                  # - ^ h J : | | | | | ^ = +                 U ",
"              & { J | r 6 z 6 6 6 6 6 t 6 2 : > +             >.",
"          + ! 2 6 6 I w I w :.:.Q F X Q 2.I I t : *           U ",
"        # < z I w F F F P +.+.P @.P +.+.P X 2.Q I I '         >.",
"      + : I w w F P 3._._.p.8._.1.1.1._.[.3.P P F :.z {       U ",
"    + ( z w F +.'._.8.9.7._.1.9.1.+.[.1.9.1.p.3.+.F F Q >     >.",
"    { I F F +._.1.9.[.2.e 8 8 P k f 1 W W _.9.1._.P P F w %   U ",
"  % I Z F @._.1.9.z ;.1 9 B 0 4 G %.5.M G f I k.1.[.@.j.2.| + >.",
". _ F P @._.9.[.u m M %.a.K.P.W.,+Y.M.K.x.%.[ : 7.9.[.@.P 2.! U ",
"% I F +.3.7.8.W y a.o.W.l+B+m+e+i+w+w+_+P.u.q.E z 9.1.3.P F | >.",
"^ 2.P '.7._.2 x ].M.&+z+5+@+=+U.)+'+^+D+4+S.x.|.p P 9._.+.F w 6.",
"| F @._.7.F f %.u.#+B+j+[+U.0.e+<.V.2+$+D+_+M.u.B W 1.t.[.P F B.",
"6 P '.1.7.W E o.P.4+p+2+V.I.2+0+0+++U.6+1+u+#+W.].C 3.1.[.+.X y.",
"7 P l.1.7.e ^.x.Y.z+$+/+X.n+t+s+s+t+++'+=+D+_+W.x.A N 7._.@.X D.",
"7 '._.7.3.f %.A.#+B+'+++)+s+s+]+r+s+7+V.7+u+g+#+K.B r 9._.@.j.D.",
"I &.3.1._.1 |.x.,+G+~+Z.)+s+s+R.k+s+0+T.7+u+|+Y.x.%.Q 7._.@.P {.",
"7 +.3.7.&.e a.q.#+E+`.)+`.s+s+r+6+r+=+`./+z+_+W.x.m P 9._.@.P D.",
"2 +.@.7.7.W A a.#+u+a+2+C./+r+r+9+/+C.0+;+z+#+M.a.p 4.1._.+.F J.",
"6 P +.8.9.1.k ].M.,+w+@+:+C.C.T.H.v.'+'+y+}+Q.u.).| h.8.[.X X D.",
"r F @.3.1.h.W ).A.M.8+x+$+/+*+V.`.-+@+q+f+P.K.}.1 +.1._.@.P Q J.",
"} F P @._.9.3.4 D A.M._+C+x+3+ +(+b+F+4+E.o.|.x ~.9.1.[.@.P I r.",
"] w F +.3._.h.P q %.].x.P.}+o+w+o+!+N.q.a.).j z _.1._.@.F Q I g.",
"$ I Z P @._.1.1.X g d M %.c.5.c.s.5.s D d C ~.z.7._.@.P F w J >.",
"  ( w 2.P +.3.t.1.[.N p s j E #.n n a -...3.h.8._.+.+.F w z ) Y ",
". % z I F F +.3._.1.9.d.Q  .!.S !.Z @.3.1.1._.3.@.P w w 7 } # U ",
"    ) I z w F P @.3.[.F.i.t.9.1.1.1.1.@.t.3.+.P F F I z 7 ;   >.",
"    . < z 6 I w F P P (.3.3.3._._.[.3.P F +.F w I I 7 6 ] .   U ",
"      + _ 7 6 7 I I F F j.P +.P F P P F 7 w  .7 6 6 2 {       >.",
"      . # ^ r 2 6 6 z I I Q Q w w w z I | 7 6 r 2 | ] .       U ",
"          + , } | r | z 6 6 7 7 7 6 6 2 2 : | | _ -           >.",
"          . + $ ] } : | | | | 2 | | | | } _ : ] %             U ",
"@               + & ' ( _ : : : : _ : _ ( ! $ +               >."};
